<?xml version="1.0" encoding="UTF-8"?>
<svg xmlns="http://www.w3.org/2000/svg" version="1.1" width="400" height="400" viewBox="0 0 400 400"><rect x="0" y="0" width="400" height="400" fill="#ffffff"/><g transform="scale(16)"><g transform="translate(0,0)"><path fill-rule="evenodd" d="M8 0L8 1L9 1L9 2L10 2L10 3L11 3L11 1L14 1L14 2L12 2L12 4L11 4L11 5L10 5L10 4L9 4L9 5L10 5L10 8L9 8L9 6L8 6L8 8L9 8L9 9L8 9L8 12L6 12L6 13L5 13L5 12L4 12L4 11L7 11L7 10L4 10L4 9L5 9L5 8L3 8L3 10L2 10L2 8L0 8L0 11L1 11L1 13L0 13L0 17L1 17L1 15L2 15L2 16L3 16L3 17L5 17L5 16L3 16L3 15L4 15L4 14L6 14L6 15L7 15L7 14L9 14L9 13L10 13L10 12L11 12L11 13L13 13L13 11L14 11L14 10L15 10L15 13L14 13L14 15L16 15L16 14L17 14L17 16L15 16L15 17L14 17L14 16L13 16L13 17L11 17L11 16L12 16L12 15L13 15L13 14L10 14L10 15L9 15L9 16L8 16L8 18L9 18L9 20L8 20L8 22L9 22L9 23L8 23L8 25L11 25L11 24L10 24L10 23L11 23L11 22L9 22L9 20L11 20L11 19L12 19L12 21L13 21L13 20L14 20L14 22L12 22L12 23L14 23L14 24L12 24L12 25L15 25L15 23L14 23L14 22L16 22L16 21L18 21L18 22L17 22L17 23L18 23L18 22L19 22L19 21L21 21L21 16L22 16L22 18L24 18L24 19L23 19L23 22L20 22L20 23L19 23L19 24L21 24L21 25L22 25L22 24L24 24L24 25L25 25L25 20L24 20L24 19L25 19L25 18L24 18L24 16L25 16L25 14L24 14L24 13L25 13L25 10L24 10L24 9L25 9L25 8L24 8L24 9L19 9L19 8L18 8L18 9L17 9L17 1L16 1L16 2L15 2L15 0L11 0L11 1L9 1L9 0ZM14 3L14 4L15 4L15 5L13 5L13 4L12 4L12 5L11 5L11 7L12 7L12 9L10 9L10 10L9 10L9 11L10 11L10 10L12 10L12 11L13 11L13 10L12 10L12 9L16 9L16 11L17 11L17 12L16 12L16 13L18 13L18 14L19 14L19 15L18 15L18 16L19 16L19 15L20 15L20 16L21 16L21 15L20 15L20 13L21 13L21 14L23 14L23 13L24 13L24 12L21 12L21 10L20 10L20 12L19 12L19 11L18 11L18 10L19 10L19 9L18 9L18 10L17 10L17 9L16 9L16 3ZM12 5L12 7L13 7L13 8L15 8L15 6L14 6L14 7L13 7L13 5ZM6 8L6 9L7 9L7 8ZM1 10L1 11L2 11L2 12L3 12L3 11L4 11L4 10L3 10L3 11L2 11L2 10ZM22 10L22 11L24 11L24 10ZM8 12L8 13L9 13L9 12ZM18 12L18 13L19 13L19 12ZM1 13L1 14L2 14L2 15L3 15L3 14L4 14L4 13ZM6 13L6 14L7 14L7 13ZM23 15L23 16L24 16L24 15ZM6 16L6 17L7 17L7 16ZM13 17L13 18L12 18L12 19L14 19L14 17ZM15 17L15 19L16 19L16 17ZM17 17L17 20L20 20L20 17ZM10 18L10 19L11 19L11 18ZM18 18L18 19L19 19L19 18ZM21 23L21 24L22 24L22 23ZM16 24L16 25L18 25L18 24ZM0 0L0 7L7 7L7 0ZM1 1L1 6L6 6L6 1ZM2 2L2 5L5 5L5 2ZM18 0L18 7L25 7L25 0ZM19 1L19 6L24 6L24 1ZM20 2L20 5L23 5L23 2ZM0 18L0 25L7 25L7 18ZM1 19L1 24L6 24L6 19ZM2 20L2 23L5 23L5 20Z" fill="#000000"/></g></g></svg>
